<?xml version="1.0" standalone="no"?>
<!DOCTYPE svg PUBLIC "-//W3C//DTD SVG 20010904//EN"
 "http://www.w3.org/TR/2001/REC-SVG-20010904/DTD/svg10.dtd">
<svg version="1.0" xmlns="http://www.w3.org/2000/svg"
 width="554.000000pt" height="554.000000pt" viewBox="0 0 554.000000 554.000000"
 preserveAspectRatio="xMidYMid meet">
<metadata>
Created by potrace 1.14, written by Peter Selinger 2001-2017
</metadata>
<g transform="translate(0.000000,554.000000) scale(0.100000,-0.100000)"
fill="#000000" stroke="none">
<path d="M0 2770 l0 -2770 2770 0 2770 0 0 2770 0 2770 -2770 0 -2770 0 0
-2770z m3085 2016 c125 -19 178 -32 327 -80 201 -65 352 -143 548 -280 104
-73 118 -85 246 -210 166 -162 284 -326 394 -551 154 -314 219 -619 206 -970
-5 -156 -29 -336 -55 -418 -5 -18 -15 -51 -21 -74 l-11 -43 -133 0 c-73 0
-135 3 -139 6 -3 4 0 23 9 42 66 160 104 475 84 704 -24 281 -84 476 -230 743
-41 75 -130 205 -141 205 -4 0 -10 9 -14 20 -8 24 -202 223 -265 270 -25 19
-47 37 -50 41 -23 30 -281 176 -395 224 -114 48 -296 98 -420 116 -114 16
-395 16 -500 0 -286 -43 -524 -136 -760 -294 -171 -115 -364 -312 -477 -487
-141 -219 -219 -413 -269 -670 -18 -93 -22 -151 -22 -300 -1 -106 5 -219 12
-265 7 -44 14 -87 16 -95 2 -13 78 -15 601 -18 418 -2 619 0 666 8 123 21 189
92 192 206 2 103 -23 110 -424 119 -321 7 -392 17 -467 68 -70 48 -85 74 -90
159 -11 174 90 398 221 487 52 35 182 86 261 101 37 7 249 13 548 17 473 6
487 5 487 -13 0 -10 -14 -67 -32 -126 l-31 -108 -430 0 c-470 0 -512 -4 -589
-58 -48 -34 -88 -111 -90 -176 -2 -41 1 -52 24 -71 44 -38 109 -45 423 -45
366 0 424 -11 498 -94 54 -61 61 -155 21 -292 -43 -148 -117 -257 -223 -325
-53 -34 -172 -75 -261 -89 -40 -6 -343 -10 -787 -10 l-722 0 -15 53 c-54 189
-71 327 -70 572 0 170 5 233 22 332 32 175 94 367 171 528 80 167 149 275 263
416 106 131 156 181 287 287 329 268 687 412 1126 456 83 8 374 -3 480 -18z
m985 -1216 l66 0 17 -87 c157 -802 235 -1375 240 -1763 2 -162 2 -166 -26
-222 -75 -153 -413 -428 -692 -563 -206 -99 -418 -165 -635 -196 -123 -18
-453 -15 -570 4 -659 111 -1194 489 -1509 1067 -22 41 -41 81 -41 88 0 9 36
12 149 12 l148 0 71 -108 c240 -369 618 -639 1042 -748 302 -77 649 -70 945
18 233 70 492 211 641 351 123 114 132 157 109 527 -18 305 -32 485 -41 518
l-6 22 -332 0 c-332 0 -333 0 -353 -22 -11 -13 -64 -87 -117 -165 -63 -93
-105 -145 -119 -148 -12 -3 -91 -4 -175 -3 l-153 3 526 703 c290 387 536 707
548 713 12 5 62 7 111 4 49 -3 119 -5 156 -5z"/>
<path d="M3755 3123 c-60 -86 -143 -203 -182 -259 -40 -56 -73 -105 -73 -108
0 -3 99 -6 220 -6 121 0 220 3 220 7 0 15 -61 449 -68 486 l-7 38 -110 -158z"/>
</g>
</svg>
